<svg width="49" height="26" viewBox="0 0 49 26" fill="none" xmlns="http://www.w3.org/2000/svg">
<g filter="url(#filter0_d)">
<path d="M53 26H4L28.5 0L53 26ZM17.3075 13.1309L20.6442 16.6702L23.981 13.1309L20.6442 9.58115L17.3075 13.1309ZM20.6442 25.0052L23.981 21.466L20.6442 17.9162L17.3075 21.466L20.6442 25.0052ZM36.4083 25.0052L39.745 21.466L36.4083 17.9162L33.019 21.466L36.4083 25.0052ZM32.4673 5.40314C32.4473 5.43762 32.4207 5.46941 32.3885 5.49738C31.3507 6.6178 30.2997 7.73822 29.2357 8.84817C29.1437 8.94241 29.2357 9.00524 29.2357 9.08901L32.3097 12.356L32.4542 12.4921L35.7909 8.96335L32.4673 5.40314ZM12.7885 25.0052L12.9198 24.8691L15.9938 21.6126C16.0428 21.5717 16.0702 21.5173 16.0702 21.4607C16.0702 21.4042 16.0428 21.3498 15.9938 21.3089C15.0611 20.3456 14.1547 19.3613 13.2351 18.3874L12.7885 17.9162L9.45174 21.466L12.7885 25.0052ZM21.2354 8.95288L24.5721 12.4921L24.6772 12.3979L27.8169 9.06806C27.922 8.95288 27.8169 8.89005 27.8169 8.80628L24.7429 5.56021L24.6115 5.42408L21.2354 8.95288ZM21.2354 17.3298L24.5721 20.8691L24.7429 20.7016C25.7413 19.6545 26.7528 18.6073 27.7643 17.4869C27.7926 17.4663 27.8152 17.4412 27.8307 17.4133C27.8461 17.3853 27.8541 17.3551 27.8541 17.3246C27.8541 17.2941 27.8461 17.2639 27.8307 17.2359C27.8152 17.208 27.7926 17.1829 27.7643 17.1623C26.8185 16.1675 25.8727 15.1728 24.9399 14.1675L24.5721 13.7906L21.2354 17.3298ZM36.9995 17.3298L40.3362 20.8691L43.6729 17.3298L40.3362 13.7906L36.9995 17.3298ZM32.4673 13.7801V13.8534L29.3013 17.2147C29.1962 17.3089 29.2357 17.3717 29.3013 17.4555L32.244 20.5969C32.3228 20.6911 32.4147 20.7853 32.5198 20.8901L35.8566 17.3508L32.4673 13.7801ZM16.7295 20.8482C16.7453 20.8175 16.7675 20.7892 16.7952 20.7644L19.9611 17.4031C20.0531 17.2984 19.9611 17.2461 19.9611 17.1623L16.8477 13.8953C16.8069 13.8484 16.7583 13.8061 16.7032 13.7696L13.3796 17.2984L16.7295 20.8482ZM36.3558 16.6597L39.6925 13.1204L36.3558 9.59162L33.019 13.1309L36.3558 16.6597ZM28.4737 8.28272L31.8105 4.74346L28.5263 1.27749H28.4606L25.2552 4.71204C25.2354 4.73712 25.2249 4.76616 25.2249 4.79581C25.2249 4.82546 25.2354 4.8545 25.2552 4.87958L28.4737 8.28272ZM28.4737 16.6597L31.8105 13.1204L28.5 9.58115L25.1633 13.1309L28.4737 16.6597ZM28.4737 25.0366L31.8105 21.4974L28.4737 17.9476L25.1633 21.466L28.4737 25.0366ZM44.2378 25.0366L47.5745 21.4974L44.2509 17.9791H44.1853L40.9668 21.3613C40.8617 21.4764 40.9668 21.5288 40.9668 21.6021L43.5941 24.4398L44.2378 25.0366ZM5.89169 25.2356H11.882L8.91314 22.0942L5.89169 25.2356ZM45.1705 25.2356H51.1083L48.1394 22.0942L45.1705 25.2356ZM27.5542 25.2356L24.5721 22.0942L21.5901 25.2356H27.5542ZM37.3147 25.2356H43.2525L40.2836 22.0942L37.3147 25.2356ZM35.3968 25.2356L32.4279 22.0942L29.459 25.2356H35.3968ZM19.6327 25.2356L16.6638 22.0942L13.6949 25.2356H19.6327Z" fill="white"/>
</g>
<defs>
<filter id="filter0_d" x="0" y="0" width="57" height="34" filterUnits="userSpaceOnUse" color-interpolation-filters="sRGB">
<feFlood flood-opacity="0" result="BackgroundImageFix"/>
<feColorMatrix in="SourceAlpha" type="matrix" values="0 0 0 0 0 0 0 0 0 0 0 0 0 0 0 0 0 0 127 0" result="hardAlpha"/>
<feOffset dy="4"/>
<feGaussianBlur stdDeviation="2"/>
<feComposite in2="hardAlpha" operator="out"/>
<feColorMatrix type="matrix" values="0 0 0 0 0 0 0 0 0 0 0 0 0 0 0 0 0 0 0.25 0"/>
<feBlend mode="normal" in2="BackgroundImageFix" result="effect1_dropShadow"/>
<feBlend mode="normal" in="SourceGraphic" in2="effect1_dropShadow" result="shape"/>
</filter>
</defs>
</svg>
