<svg width="38" height="30" xmlns="http://www.w3.org/2000/svg">

  <path d="m17.86,0.255l-14.23,10.42l0,8.65l14.23,10.42c-0.03,-22.23 0,-11.32 0,-29.49z" fill="#B3B3B3"/>
  <path d="m0,22.17999l7.47,0l0,-14.35999l-7.47,0l0,14.35999z" fill="#B3B3B3"/>
  <path d="m31.902,15l3.468,-3.468c0.22,-0.22 0.33,-0.488 0.33,-0.802s-0.11,-0.582 -0.33,-0.802l-1.604,-1.604c-0.22,-0.22 -0.488,-0.33 -0.802,-0.33s-0.582,0.11 -0.802,0.33l-3.468,3.468l-3.468,-3.468c-0.22,-0.22 -0.488,-0.33 -0.802,-0.33s-0.582,0.11 -0.802,0.33l-1.604,1.604c-0.22,0.22 -0.33,0.488 -0.33,0.802s0.11,0.582 0.33,0.802l3.468,3.468l-3.468,3.468c-0.22,0.22 -0.33,0.488 -0.33,0.802s0.11,0.582 0.33,0.802l1.604,1.604c0.22,0.22 0.488,0.33 0.802,0.33s0.582,-0.11 0.802,-0.33l3.468,-3.468l3.468,3.468c0.22,0.22 0.487,0.33 0.802,0.33s0.582,-0.11 0.802,-0.33l1.604,-1.604c0.22,-0.22 0.33,-0.488 0.33,-0.802s-0.11,-0.582 -0.33,-0.802l-3.468,-3.468z" fill="#B3B3B3"/>

</svg>